HIERARCHY
ROOT Hips
{
	OFFSET 0.000000 0.000000 0.000000
	CHANNELS 6 Xposition Yposition Zposition Xrotation Yrotation Zrotation
	JOINT LeftUpLeg_virtual
	{
		OFFSET 0.000000 0.000000 0.000000
		CHANNELS 3 Xrotation Yrotation Zrotation
		JOINT LeftUpLeg
		{
			OFFSET 13.026900 -6.336304 -1.092800
			CHANNELS 3 Xrotation Yrotation Zrotation
			JOINT LeftLeg
			{
				OFFSET 0.524474 -46.096886 9.782700
				CHANNELS 3 Xrotation Yrotation Zrotation
				JOINT LeftFoot
				{
					OFFSET -0.524474 -53.427422 -12.948200
					CHANNELS 3 Xrotation Yrotation Zrotation
					JOINT LeftToeBase
					{
						OFFSET 0.192200 -14.009700 16.364100
						CHANNELS 3 Xrotation Yrotation Zrotation
						JOINT LeftToe_End
						{
							OFFSET -1.784700 -0.561700 9.474800
							CHANNELS 3 Xrotation Yrotation Zrotation
							End Site
							{
								OFFSET 0 0 0
							}
						}
					}
				}
			}
		}
	}
	JOINT RightUpLeg_virtual
	{
		OFFSET 0.000000 0.000000 0.000000
		CHANNELS 3 Xrotation Yrotation Zrotation
		JOINT RightUpLeg
		{
			OFFSET -12.883000 -6.336304 -1.092800
			CHANNELS 3 Xrotation Yrotation Zrotation
			JOINT RightLeg
			{
				OFFSET -0.524587 -46.096825 9.782800
				CHANNELS 3 Xrotation Yrotation Zrotation
				JOINT RightFoot
				{
					OFFSET 0.524587 -53.427383 -12.948300
					CHANNELS 3 Xrotation Yrotation Zrotation
					JOINT RightToeBase
					{
						OFFSET -0.192200 -14.009700 16.364100
						CHANNELS 3 Xrotation Yrotation Zrotation
						JOINT RightToe_End
						{
							OFFSET 1.784700 -0.561700 9.474800
							CHANNELS 3 Xrotation Yrotation Zrotation
							End Site
							{
								OFFSET 0 0 0
							}
						}
					}
				}
			}
		}
	}
	JOINT Spine_virtual
	{
		OFFSET 0.000000 0.000000 0.000000
		CHANNELS 3 Xrotation Yrotation Zrotation
		JOINT Spine
		{
			OFFSET 0.072000 7.257294 -0.789700
			CHANNELS 3 Xrotation Yrotation Zrotation
			JOINT Spine1
			{
				OFFSET 0.000000 12.508769 -0.658067
				CHANNELS 3 Xrotation Yrotation Zrotation
				JOINT Spine1_split
				{
					OFFSET 0.000000 12.508769 -0.658067
					CHANNELS 3 Xrotation Yrotation Zrotation
					JOINT Spine2
					{
						OFFSET 0.000000 12.508769 -0.658067
						CHANNELS 3 Xrotation Yrotation Zrotation
						JOINT Neck_virtual
						{
							OFFSET 0.000000 0.000000 0.000000
							CHANNELS 3 Xrotation Yrotation Zrotation
							JOINT Neck
							{
								OFFSET 0.000000 14.033295 7.520400
								CHANNELS 3 Xrotation Yrotation Zrotation
								JOINT Head
								{
									OFFSET 0.000000 8.198502 5.703100
									CHANNELS 3 Xrotation Yrotation Zrotation
									JOINT HeadTop_End
									{
										OFFSET 0.000000 17.760803 13.332701
										CHANNELS 3 Xrotation Yrotation Zrotation
										End Site
										{
											OFFSET 0 0 0
										}
									}
								}
							}
						}
						JOINT LeftShoulder_virtual
						{
							OFFSET 0.000000 0.000000 0.000000
							CHANNELS 3 Xrotation Yrotation Zrotation
							JOINT LeftShoulder
							{
								OFFSET 6.292450 5.785301 -0.669000
								CHANNELS 3 Xrotation Yrotation Zrotation
								JOINT LeftShoulder_split
								{
									OFFSET 6.292450 5.785301 -0.669000
									CHANNELS 3 Xrotation Yrotation Zrotation
									JOINT LeftArm
									{
										OFFSET 13.907140 -6.093903 1.965100
										CHANNELS 3 Xrotation Yrotation Zrotation
										JOINT LeftForeArm
										{
											OFFSET 34.140198 0.000000 0.000000
											CHANNELS 3 Xrotation Yrotation Zrotation
											JOINT LeftHand
											{
												OFFSET 40.960209 0.000000 0.000000
												CHANNELS 3 Xrotation Yrotation Zrotation
												End Site
												{
													OFFSET 0 0 0
												}
											}
										}
									}
								}
							}
						}
						JOINT RightShoulder_virtual
						{
							OFFSET 0.000000 0.000000 0.000000
							CHANNELS 3 Xrotation Yrotation Zrotation
							JOINT RightShoulder
							{
								OFFSET -6.292450 5.785301 -0.669000
								CHANNELS 3 Xrotation Yrotation Zrotation
								JOINT RightShoulder_split
								{
									OFFSET -6.292450 5.785301 -0.669000
									CHANNELS 3 Xrotation Yrotation Zrotation
									JOINT RightArm
									{
										OFFSET -13.907140 -6.093903 1.965100
										CHANNELS 3 Xrotation Yrotation Zrotation
										JOINT RightForeArm
										{
											OFFSET -34.140198 0.000000 0.000000
											CHANNELS 3 Xrotation Yrotation Zrotation
											JOINT RightHand
											{
												OFFSET -40.960209 0.000000 0.000000
												CHANNELS 3 Xrotation Yrotation Zrotation
												End Site
												{
													OFFSET 0 0 0
												}
											}
										}
									}
								}
							}
						}
					}
				}
			}
		}
	}
}
MOTION
Frames: 5
Frame Time: 0.03333333
0.074872 113.164169 -7.712910 0.000000 0.000000 0.000000 4.206116 5.512834 -0.545518 -19.332381 8.473588 8.153629 27.809995 1.785788 0.681942 -11.889722 1.245981 -5.493351 -1.103621 0.185129 0.056792 0.000000 0.000000 0.000000 4.533110 4.867224 -0.820597 -11.092695 -5.663596 -5.156809 22.200616 -7.949674 3.415184 -9.494444 -17.145306 0.507408 -2.135074 0.195667 0.058387 0.000000 0.000000 0.000000 5.282338 2.380992 -1.525238 18.570214 -2.123991 0.032680 0.233695 0.000530 1.055978 0.975758 -0.102621 0.037415 0.000000 0.000000 0.000000 1.075790 -0.476382 0.486649 17.831587 3.050459 -0.646412 11.357178 2.533893 1.908821 0.000000 0.000000 0.000000 0.906037 -0.008600 -0.055789 12.397509 -36.773462 -0.315934 1.658336 -1.282645 -3.059614 12.495122 17.250599 -47.242390 -1.315252 -37.013813 0.006116 0.000000 0.000000 0.000000 0.275640 -0.170945 0.782474 0.860365 -1.764679 7.264677 1.639782 5.304547 -1.583775 -0.518554 16.893672 36.745240 0.654610 14.985698 1.223771 0.000000 0.000000 0.000000 
0.139957 113.273056 -7.544025 0.000000 0.000000 0.000000 3.972540 5.564851 -0.447239 -18.957590 8.688892 8.065992 27.443854 1.774109 0.641442 -11.802257 1.234903 -5.352698 -1.086610 0.192038 0.087148 0.000000 0.000000 0.000000 4.353785 4.906132 -0.729809 -10.777166 -5.608883 -5.237665 21.980935 -7.793334 3.357143 -9.246533 -17.151046 0.566475 -2.124223 0.188882 0.073817 0.000000 0.000000 0.000000 5.019977 2.566724 -1.388425 17.982920 -2.153142 0.048694 0.272338 -0.030028 0.973377 0.984850 -0.157902 0.020351 0.000000 0.000000 0.000000 1.102467 -0.519411 0.389451 17.803189 2.305291 -0.366575 11.377548 0.011899 3.060203 0.000000 0.000000 0.000000 0.980078 -0.069229 -0.133278 12.117542 -36.522189 -0.282835 1.693728 -0.980729 -2.907848 14.045029 17.921949 -47.498850 -1.359801 -36.612488 -0.066247 0.000000 0.000000 0.000000 0.316508 -0.218865 0.740030 0.579143 -1.953480 6.874792 1.863760 5.409214 -1.450741 0.705815 16.114692 36.790022 0.708529 14.962943 1.121006 0.000000 0.000000 0.000000 
0.184916 113.339211 -7.470837 0.000000 0.000000 0.000000 3.765472 5.587333 -0.405834 -18.708996 8.824137 7.975076 27.162441 1.719156 0.650671 -11.710393 1.218898 -5.219847 -1.058605 0.201558 0.091150 0.000000 0.000000 0.000000 4.189240 4.908282 -0.686268 -10.495555 -5.559164 -5.260531 21.822190 -7.649258 3.322260 -9.054462 -17.164677 0.630816 -2.163750 0.182743 0.084050 0.000000 0.000000 0.000000 4.798804 2.735834 -1.305263 17.473106 -2.105961 0.067500 0.346886 -0.057966 0.961200 1.024735 -0.194338 0.006420 0.000000 0.000000 0.000000 1.118858 -0.546025 0.350452 17.668900 1.640409 -0.123403 11.323537 -2.087394 3.997347 0.000000 0.000000 0.000000 1.081060 -0.126267 -0.134280 11.836795 -36.058498 -0.247682 1.793266 -0.637241 -2.766668 15.075937 18.143581 -48.038445 -1.474490 -36.394045 -0.183495 0.000000 0.000000 0.000000 0.380047 -0.259577 0.749468 0.394906 -2.148144 6.633548 2.106484 5.640023 -1.363898 1.008113 15.527142 37.414912 0.688525 14.787431 1.060355 0.000000 0.000000 0.000000 
0.212308 113.349792 -7.450268 0.000000 0.000000 0.000000 3.565865 5.614661 -0.399330 -18.568098 8.815114 7.870597 27.004109 1.601932 0.716616 -11.592718 1.188170 -5.131213 -1.022177 0.212236 0.068770 0.000000 0.000000 0.000000 4.003565 4.903094 -0.669989 -10.242945 -5.502790 -5.231892 21.767004 -7.543005 3.309741 -8.967274 -17.210420 0.668452 -2.219540 0.178778 0.086058 0.000000 0.000000 0.000000 4.591217 2.897759 -1.257661 17.052542 -1.988390 0.087114 0.442881 -0.076309 1.008671 1.049022 -0.177849 -0.055836 0.000000 0.000000 0.000000 1.112026 -0.553328 0.359318 17.479378 1.081650 0.044540 11.259129 -3.762969 4.753823 0.000000 0.000000 0.000000 1.186060 -0.174504 -0.080093 11.563868 -35.481689 -0.249332 1.818867 -0.230685 -2.660262 15.592123 17.933198 -48.708883 -1.684467 -36.086109 -0.344935 0.000000 0.000000 0.000000 0.447584 -0.283117 0.797768 0.321626 -2.316099 6.623051 2.325313 5.866614 -1.272508 0.515595 15.182406 38.558453 0.631302 14.391939 1.010515 0.000000 0.000000 0.000000 
0.223473 113.311447 -7.455135 0.000000 0.000000 0.000000 3.354629 5.672868 -0.391726 -18.465440 8.640547 7.727565 26.939813 1.435401 0.842662 -11.460355 1.154734 -5.076531 -0.972569 0.221331 0.025637 0.000000 0.000000 0.000000 3.775654 4.932100 -0.653176 -10.005978 -5.456538 -5.184658 21.837896 -7.484613 3.313779 -9.003488 -17.308181 0.666987 -2.258151 0.177854 0.082678 0.000000 0.000000 0.000000 4.378721 3.087681 -1.212107 16.735773 -1.807613 0.101492 0.544758 -0.081681 1.091711 1.030469 -0.169819 -0.161733 0.000000 0.000000 0.000000 1.069227 -0.542295 0.403906 17.279282 0.659484 0.113163 11.233151 -5.052174 5.354794 0.000000 0.000000 0.000000 1.268474 -0.205822 0.001615 11.302758 -34.882264 -0.330404 1.760302 0.177322 -2.615625 15.664212 17.224344 -49.418386 -1.958008 -35.634285 -0.520872 0.000000 0.000000 0.000000 0.504628 -0.273864 0.865185 0.361337 -2.380152 6.928429 2.529808 6.043629 -1.228536 -0.547417 15.077328 40.165942 0.588886 13.767218 0.942927 0.000000 0.000000 0.000000 
